<svg width="87" height="102" viewBox="0 0 87 102" fill="none" xmlns="http://www.w3.org/2000/svg">
<path fill-rule="evenodd" clip-rule="evenodd" d="M66.6719 14L75.9738 81.8427L76.8095 88.649C77.0787 90.8417 75.5194 92.8375 73.3268 93.1067L14.7665 100.297C12.5739 100.566 10.5781 99.007 10.3089 96.8143L1.29312 23.3868C1.1585 22.2904 1.93813 21.2925 3.03447 21.1579C3.0414 21.1571 3.04832 21.1563 3.05526 21.1555L7.91363 20.6105M11.8422 20.1698L16.4292 19.6553Z" fill="white"/>
<path d="M67.9103 13.8302C67.8165 13.1463 67.186 12.6678 66.5021 12.7616C65.8181 12.8554 65.3397 13.4859 65.4335 14.1698L67.9103 13.8302ZM75.9738 81.8427L77.2144 81.6904C77.2137 81.6846 77.213 81.6788 77.2122 81.6729L75.9738 81.8427ZM76.8095 88.649L78.0502 88.4967L76.8095 88.649ZM73.3268 93.1067L73.4791 94.3474L73.3268 93.1067ZM14.7665 100.297L14.9189 101.538L14.7665 100.297ZM10.3089 96.8143L11.5496 96.662L10.3089 96.8143ZM1.29312 23.3868L2.5338 23.2344L1.29312 23.3868ZM3.05526 21.1555L3.1946 22.3977L3.05526 21.1555ZM8.05297 21.8527C8.73902 21.7758 9.23279 21.1572 9.15584 20.4712C9.07888 19.7851 8.46034 19.2913 7.77428 19.3683L8.05297 21.8527ZM11.7028 18.9276C11.0168 19.0046 10.523 19.6231 10.5999 20.3092C10.6769 20.9952 11.2954 21.489 11.9815 21.412L11.7028 18.9276ZM16.5685 20.8975C17.2546 20.8205 17.7484 20.202 17.6714 19.5159C17.5945 18.8299 16.9759 18.3361 16.2899 18.4131L16.5685 20.8975ZM65.4335 14.1698L74.7354 82.0125L77.2122 81.6729L67.9103 13.8302L65.4335 14.1698ZM74.7331 81.9951L75.5688 88.8014L78.0502 88.4967L77.2144 81.6904L74.7331 81.9951ZM75.5688 88.8014C75.7539 90.3088 74.6819 91.6809 73.1744 91.866L73.4791 94.3474C76.357 93.994 78.4035 91.3746 78.0502 88.4967L75.5688 88.8014ZM73.1744 91.866L14.6142 99.0563L14.9189 101.538L73.4791 94.3474L73.1744 91.866ZM14.6142 99.0563C13.1067 99.2414 11.7347 98.1694 11.5496 96.662L9.0682 96.9666C9.42156 99.8445 12.041 101.891 14.9189 101.538L14.6142 99.0563ZM11.5496 96.662L2.5338 23.2344L0.0524334 23.5391L9.0682 96.9666L11.5496 96.662ZM2.5338 23.2344C2.48332 22.8233 2.77568 22.4491 3.18681 22.3986L2.88213 19.9173C1.10059 20.136 -0.166313 21.7576 0.0524334 23.5391L2.5338 23.2344ZM3.18681 22.3986C3.1894 22.3983 3.192 22.398 3.1946 22.3977L2.91592 19.9133C2.90465 19.9145 2.89339 19.9159 2.88213 19.9173L3.18681 22.3986ZM3.1946 22.3977L8.05297 21.8527L7.77428 19.3683L2.91592 19.9133L3.1946 22.3977ZM11.9815 21.412L16.5685 20.8975L16.2899 18.4131L11.7028 18.9276L11.9815 21.412Z" fill="#1F64E7"/>
<path fill-rule="evenodd" clip-rule="evenodd" d="M64.14 18.2692L72.5596 79.7529L73.3169 85.9211C73.5609 87.9082 72.1669 89.7146 70.2033 89.9557L17.7613 96.3947C15.7978 96.6358 14.0082 95.2204 13.7642 93.2333L5.61416 26.8568C5.47955 25.7604 6.25918 24.7625 7.35551 24.6279L13.8431 23.8314" fill="#E8F0FE"/>
<path d="M23.6719 1.25H69.2286C69.9577 1.25 70.6569 1.5395 71.1726 2.05485L84.6158 15.4898C85.1319 16.0056 85.4219 16.7053 85.4219 17.4349V80C85.4219 81.5188 84.1907 82.75 82.6719 82.75H23.6719C22.1531 82.75 20.9219 81.5188 20.9219 80V4C20.9219 2.48122 22.1531 1.25 23.6719 1.25Z" fill="white" stroke="#1F64E7" stroke-width="2.5"/>
<path d="M69.6719 2.40283V14C69.6719 15.6569 71.015 17 72.6719 17H80.6055" stroke="#1F64E7" stroke-width="2.5" stroke-linecap="round" stroke-linejoin="round"/>
<path d="M31 68H57M31 17H57H31ZM31 29H74H31ZM31 42H74H31ZM31 55H74H31Z" stroke="#75A4FE" stroke-width="2.5" stroke-linecap="round" stroke-linejoin="round"/>
</svg>
