<?xml version="1.0" encoding="utf-8"?>
<!-- Generator: Adobe Illustrator 28.7.1, SVG Export Plug-In . SVG Version: 9.03 Build 54978)  -->
<svg version="1.1" id="Layer_1" xmlns="http://www.w3.org/2000/svg" xmlns:xlink="http://www.w3.org/1999/xlink" x="0px" y="0px"
	 viewBox="0 0 229 62.3" style="enable-background:new 0 0 229 62.3;" xml:space="preserve">
<style type="text/css">
	.st0{fill:#1C7C59;}
</style>
<g>
	<path class="st0" d="M19.3,40.8c-1.8,2.8-4.4,5-8.1,5c-5.6,0-9.6-4.6-9.6-12.1c0-11.7,8.1-22.4,15.7-22.4c2.3,0,4,1.1,5.2,2.6
		c1.1-1.5,2.6-2.6,4.5-2.6c3.3,0,4.8,2.5,4.8,5.8c0,4.8-4.4,9.5-4.4,17.3c0,2.8,1.2,3.9,2.8,3.9c4,0,5.2-4.9,6.9-4.9
		c0.9,0,1.3,0.5,1.3,1.6c0,2.5-4.6,10.9-12.8,10.9C22.1,45.8,20.1,43.7,19.3,40.8z M19.8,26.3c-1.4-0.2-2-1.1-2-2.3
		c0-0.4,0.1-0.8,0.2-1.3c0.2-0.8,0.3-1.5,0.3-2.2c0-1.5-0.5-2.5-1.8-2.5c-3.8,0-5.7,7-5.7,12.3c0,5.3,1.6,6.8,3.4,6.8
		C18,37.2,19.4,31.1,19.8,26.3z"/>
	<path class="st0" d="M42.6,45.8c-6.5,0-7.6-6.3-7.6-26.6c0-4,1.8-7.8,5.8-7.8c4,0,5.4,3.3,5.4,7c0,5.1-1.8,7.6-1.8,14.7
		c0,2.2,0.8,3.1,2,3.1c2.4,0,6.2-4,6.2-10.8c0-2.2-0.5-4.9-1.4-7.7C51,17.2,51,16.8,51,16.4c0-2.6,2.7-5,6-5s5,2.1,5,6.2
		C62,23.2,54.2,45.8,42.6,45.8z"/>
	<path class="st0" d="M87.6,22.5c6.4-0.8,6.7-4,8.4-4c1,0,1.3,0.8,1.3,1.8c0,2.6-4.1,6.4-9.7,7.7c-0.9,11.3-6.5,17.8-13.9,17.8
		s-11.7-6.5-11.7-14c0-11.6,7.2-20.4,15.1-20.4C84.2,11.4,87,17.7,87.6,22.5z M81.7,28.4c-4.5-0.7-6-4-6-7c0-1.5,0.5-2.6,0.8-3.2
		c-3.1,0.5-5.6,5.3-5.6,10.3c0,5.3,2.1,7.9,4.9,7.9C78.9,36.4,81,32.7,81.7,28.4z"/>
	<path class="st0" d="M120.5,16.8c0,5.8-4,5.9-5.1,23c-1,14.2-6.7,22.4-17.9,22.4c-5.2,0-9.7-2.7-9.7-6.9c0-3.1,2-5.8,5.4-5.8
		c4,0,4.8,3.8,7.4,3.8c3.5,0,5.8-5.8,6.3-11.8c-1.6,2.4-3.9,4.3-6.8,4.3c-5.6,0-9.5-4.6-9.5-12.1c0-11.7,8.1-22.4,15.6-22.4
		c2.4,0,4.2,1.1,5.4,2.7c1.2-1.9,3-2.7,4.6-2.7C118.7,11.4,120.5,13.3,120.5,16.8z M108.7,26.3c-1.4-0.2-1.9-1.1-1.9-2.2
		c0-0.5,0.1-0.9,0.2-1.4c0.2-0.7,0.3-1.4,0.3-2.1c0-1.6-0.6-2.6-1.9-2.6c-3.8,0-5.7,7-5.7,12.3c0,5.3,1.7,6.8,3.4,6.8
		C106.9,37.2,108.2,31.1,108.7,26.3z"/>
	<path class="st0" d="M133.2,18.7c0,0.7-0.1,1.2-0.1,1.2s4.9-9,10.3-9c4.5,0,6.2,3.4,6.2,7c0,3.7-2.9,8.3-7.6,8.3
		c-2.3,0-4-0.8-4-2.2c0-0.4,0.2-0.7,0.2-1.4c0-0.8-0.5-1.3-1.4-1.3c-3.1,0-5.3,7.5-5.3,12.4c0,1.9,0.1,3.6,0.1,4.4
		c0,5-2.9,7.6-6.5,7.6c-3,0-5-2.3-5-6.1c0-4.5,2.8-7.2,3.3-12.1c0.1-0.7,0.1-1.4,0.1-2.2c0-2.5-0.4-5-0.4-7.6c0-2.6,2.2-5.1,5.4-5.1
		C132.7,12.6,133.2,16.7,133.2,18.7z"/>
	<path class="st0" d="M165.7,40.8c-1.8,2.8-4.4,5-8.1,5c-5.6,0-9.6-4.6-9.6-12.1c0-11.7,8.1-22.4,15.7-22.4c2.3,0,4,1.1,5.2,2.6
		c1.1-1.5,2.6-2.6,4.5-2.6c3.3,0,4.8,2.5,4.8,5.8c0,4.8-4.4,9.5-4.4,17.3c0,2.8,1.2,3.9,2.8,3.9c4,0,5.2-4.9,6.9-4.9
		c0.9,0,1.3,0.5,1.3,1.6c0,2.5-4.6,10.9-12.8,10.9C168.5,45.8,166.5,43.7,165.7,40.8z M166.3,26.3c-1.4-0.2-2-1.1-2-2.3
		c0-0.4,0.1-0.8,0.2-1.3c0.2-0.8,0.3-1.5,0.3-2.2c0-1.5-0.5-2.5-1.8-2.5c-3.8,0-5.7,7-5.7,12.3c0,5.3,1.6,6.8,3.4,6.8
		C164.5,37.2,165.8,31.1,166.3,26.3z"/>
	<path class="st0" d="M222.5,38.3c0.7,0,1.2,0.8,1.2,2c0,2.2-1.6,5.6-6.2,5.6c-5,0-7.7-3.7-7.7-8c0-5.5,3.7-10.8,3.7-13.9
		c0-0.9-0.5-1.4-1.3-1.4c-1.8,0-6.5,4.9-6.5,13.4v2.9c0,4.4-2.9,6.9-5.9,6.9c-3.1,0-4.9-2.5-4.9-5.8c0-4.6,4.4-11.9,4.4-15.9
		c0-1-0.5-1.4-1.2-1.4c-2.4,0-6.6,7.4-6.6,15.4c0,5.6-2.8,7.9-6.1,7.9c-3,0-5.2-2.2-5.2-5.9c0-4.5,2.8-7.4,3.3-12.3
		c0.1-0.6,0.1-1.3,0.1-1.9c0-2.5-0.5-4.9-0.5-7.6c0-3.1,1.8-5.8,4.9-5.8c4.4,0,4.9,4.3,4.9,6.6c0,0.7-0.1,1.3-0.1,1.3
		s4.7-8.6,10.1-8.6c5.8,0,6.2,8.2,6.2,8.2s4.2-8.3,10.2-8.3c4.8,0,6.3,3.1,6.3,6.7c0,5.2-5.9,12.7-5.9,17.1
		C219.5,37.4,220.9,38.3,222.5,38.3z"/>
</g>
<g>
</g>
<g>
</g>
<g>
</g>
<g>
</g>
<g>
</g>
<g>
</g>
</svg>
